<svg width="927" height="968" viewBox="0 0 927 968" fill="none" xmlns="http://www.w3.org/2000/svg">
<path d="M242.659 258.734C241.168 257.217 241.123 254.797 242.58 253.248C275.177 218.6 316.725 192.649 360.839 177.825C404.846 163.037 452.039 165.102 497.539 173.732C499.723 174.146 501.132 176.274 500.681 178.451L443.52 454.168C442.871 457.299 438.992 458.441 436.751 456.161L242.659 258.734Z" fill="#4193DA"/>
<path d="M521.227 125.348C521.656 123.211 523.723 121.809 525.862 122.222C595.592 135.673 654.688 169.454 704.736 219.644C754.775 269.825 791.572 324.677 804.314 393.635C804.709 395.776 803.29 397.828 801.152 398.238L458.848 463.879C456.056 464.414 453.613 461.949 454.173 459.162L521.227 125.348Z" fill="#36DCD7"/>
<path d="M508.16 737.999C509.176 742.864 506.057 747.647 501.163 748.513C442.513 758.897 382.011 751.17 327.757 726.247C270.772 700.07 223.685 656.304 193.413 601.378C163.141 546.453 151.281 483.264 159.576 421.098C167.455 362.041 188.17 313.633 227.612 270.304C231.043 266.535 236.933 266.548 240.467 270.219L291.977 323.742C295.337 327.233 295.3 332.744 292.13 336.409C267.587 364.784 260.202 395.031 255.025 433.837C249.456 475.578 257.419 518.005 277.745 554.884C298.07 591.763 325.186 616.44 362.008 635.948C397.562 652.281 442.241 660.013 481.456 654.117C486.372 653.378 491.137 656.476 492.153 661.342L508.16 737.999Z" fill="#36DCD7"/>
<path d="M53.1283 419.5C49.5792 419.5 46.8023 416.436 47.2053 412.909C57.0925 326.395 91.5267 242.392 151.69 179.01C210.054 114.179 288.255 69.337 373.385 50.3191C376.715 49.5753 379.963 51.8053 380.519 55.1712L387.063 94.8212C387.587 97.995 385.512 101.012 382.373 101.718C308.207 118.387 242.058 157.862 191.131 214.432C140.134 271.079 109.204 338.664 100.578 414.096C100.228 417.16 97.6518 419.5 94.5688 419.5H53.1283Z" fill="#F2DA4D"/>
<path d="M740.953 423.246C745.311 422.557 749.417 425.528 749.979 429.904C759.02 500.304 738.129 568.751 698 628.019C657.9 687.245 596.373 725.324 526.97 743.077C522.614 744.192 518.254 741.389 517.35 736.984L501.57 660.162C500.697 655.911 503.378 651.751 507.575 650.645C552.693 638.762 593.482 614.848 619.592 576.284C645.653 537.794 656.917 491.384 651.513 445.489C650.996 441.094 653.958 436.987 658.329 436.297L740.953 423.246Z" fill="#084DB8"/>
<path d="M528.377 55.0536C526.81 50.1547 530.887 45.3055 535.964 46.1284C624.86 60.5374 702.803 102.739 765.81 167.768C829.596 233.601 869.688 320.851 880.643 411.796C881.139 415.914 877.896 419.5 873.749 419.5H835.322C831.731 419.5 828.73 416.78 828.299 413.215C818.749 334.232 782.042 263.14 726.475 205.79C671.64 149.195 607.447 110.089 530.349 97.4C525.71 96.6366 522.978 91.6844 524.937 87.411L526.031 85.024C526.342 84.3457 526.542 83.622 526.624 82.8804L528 70.5L528.9 58.3557C528.966 57.4603 528.859 56.5604 528.586 55.7052L528.377 55.0536Z" fill="#16CBDA"/>
<path d="M103.671 654.891C98.819 657.522 92.7419 655.73 90.2274 650.818C68.6675 608.694 54.3285 562.469 47.8768 515.584C47.0644 509.68 51.7106 504.5 57.6696 504.5H92.0471C97.1436 504.5 101.41 508.336 102.087 513.387C107.463 553.515 118.734 589.344 137.154 625.345C139.672 630.266 137.886 636.338 133.027 638.972L103.671 654.891Z" fill="#F2DA4D"/>
<path d="M870.964 503.5C876.321 503.5 880.5 508.153 879.794 513.464C868.497 598.485 831.872 679.361 773.864 742.684C713.593 808.476 633.9 853.373 546.349 870.857C458.799 888.342 367.949 877.506 286.983 839.921C208.706 803.583 145.863 747.494 102.86 673.217C100.397 668.962 101.926 663.542 106.195 661.103L136.065 644.034C140.428 641.541 145.978 643.112 148.512 647.451C186.135 711.879 241.005 760.813 309.087 792.418C379.943 825.31 459.449 834.793 536.067 819.492C612.684 804.19 682.427 764.9 735.171 707.323C786.092 651.737 817.318 585.816 827.039 511.515C827.634 506.961 831.478 503.5 836.071 503.5H870.964Z" fill="#025FC4"/>
<path d="M520 68.5C520 93.629 499.629 114 474.5 114C449.371 114 429 93.629 429 68.5C429 43.371 449.371 23 474.5 23C499.629 23 520 43.371 520 68.5Z" fill="#16CBDA"/>
<path d="M482 927.5C482 949.868 463.868 968 441.5 968C419.132 968 401 949.868 401 927.5C401 905.132 419.132 887 441.5 887C463.868 887 482 905.132 482 927.5Z" fill="#0097E3"/>
<path d="M0 448H28V478H0V448Z" fill="#50AC32"/>
<path d="M34 448H62V478H34V448Z" fill="#50AC32"/>
<path d="M68 448H96V478H68V448Z" fill="#50AC32"/>
<path d="M831 447H859V477H831V447Z" fill="#025FC4"/>
<path d="M865 447H893V477H865V447Z" fill="#025FC4"/>
<path d="M899 447H927V477H899V447Z" fill="#025FC4"/>
<path d="M11.0341 419C6.96571 419 3.7494 415.538 4.12035 411.487C14.422 298.976 69.261 197.425 152.685 121.198C237.963 43.2777 349.287 0.0492703 464.803 4.20915e-05C580.318 -0.0491861 691.68 43.0843 777.023 120.932C860.475 197.054 911.177 299.316 923.239 411.363C923.68 415.458 920.447 419 916.329 419H911.888C908.269 419 905.253 416.236 904.874 412.638C893.5 304.537 845.65 207.409 765.135 133.965C683.043 59.0839 575.924 17.5938 464.81 17.6412C353.696 17.6885 246.613 59.2699 164.585 134.221C84.1336 207.732 31.5933 304.538 20.1267 412.632C19.7447 416.233 16.7274 419 13.1066 419H11.0341Z" fill="#5DC89E"/>
<path d="M917.283 505.294C921.408 505.294 924.643 508.844 924.189 512.944C912.896 614.967 868.003 710.429 796.462 784.239C724.977 857.992 629.472 905.926 527.864 920.445C523.694 921.04 520 917.778 520 913.566V910.676C520 907.147 522.63 904.176 526.125 903.687C624.282 889.948 714.617 843.129 783.693 771.862C855.953 700.527 895.329 610.849 905.394 511.678C905.76 508.069 908.781 505.294 912.408 505.294L917.283 505.294Z" fill="#0097E3"/>
<path d="M396.851 916.32C396.851 918.148 395.222 919.549 393.416 919.262C292.319 903.221 198.241 855.019 128 780.5C58.719 706.999 15.1039 612.438 4.26061 512.131C3.81812 508.038 7.05068 504.5 11.1679 504.5H14.6097C18.2292 504.5 21.2465 507.263 21.6224 510.863C31.754 607.894 70.5057 697.559 139.5 769C207.102 840.72 300.227 889.262 397.568 904.887C399.367 905.176 400.246 907.256 399.187 908.739C399.063 908.912 398.962 909.101 398.887 909.301L397.679 912.522C397.56 912.84 397.464 913.167 397.392 913.499L396.918 915.688C396.874 915.895 396.851 916.107 396.851 916.32Z" fill="#50AC32"/>
<path d="M563.955 548.951H584.984C584.695 556.852 583.105 563.525 580.215 568.969C577.324 574.365 573.205 578.46 567.857 581.254C562.558 584.048 556.15 585.445 548.635 585.445C542.805 585.445 537.626 584.482 533.098 582.555C528.569 580.579 524.715 577.689 521.535 573.883C518.355 570.077 515.947 565.38 514.309 559.791C512.719 554.154 511.924 547.674 511.924 540.352V522.502C511.924 515.179 512.767 508.699 514.453 503.062C516.188 497.426 518.645 492.704 521.824 488.898C525.052 485.044 528.93 482.154 533.459 480.227C538.036 478.251 543.191 477.264 548.924 477.264C556.584 477.264 562.992 478.709 568.146 481.6C573.301 484.49 577.276 488.706 580.07 494.246C582.913 499.738 584.623 506.459 585.201 514.408H564.1C563.955 509.398 563.377 505.471 562.365 502.629C561.402 499.738 559.86 497.715 557.74 496.559C555.62 495.354 552.682 494.752 548.924 494.752C546.13 494.752 543.721 495.258 541.697 496.27C539.674 497.233 538.012 498.799 536.711 500.967C535.41 503.135 534.447 505.977 533.82 509.494C533.242 513.011 532.953 517.299 532.953 522.357V540.352C532.953 545.314 533.218 549.553 533.748 553.07C534.278 556.539 535.121 559.382 536.277 561.598C537.434 563.814 538.999 565.428 540.975 566.439C542.998 567.451 545.551 567.957 548.635 567.957C552.2 567.957 555.066 567.427 557.234 566.367C559.451 565.307 561.089 563.404 562.148 560.658C563.208 557.912 563.811 554.01 563.955 548.951Z" fill="#02255B"/>
<path fill-rule="evenodd" clip-rule="evenodd" d="M472.178 478.781H452.955L420.074 584H442.404L448.078 562.32H477.163L482.873 584H505.348L472.178 478.781ZM472.538 544.76H452.674L462.574 506.929L472.538 544.76Z" fill="#02255B"/>
<path fill-rule="evenodd" clip-rule="evenodd" d="M372.307 584C378.521 584 384.134 583.012 389.145 581.037C394.155 579.062 398.419 576.195 401.936 572.438C405.501 568.632 408.247 563.982 410.174 558.49C412.101 552.998 413.064 546.687 413.064 539.557V523.297C413.064 516.215 412.101 509.904 410.174 504.363C408.247 498.823 405.501 494.174 401.936 490.416C398.37 486.61 394.107 483.719 389.145 481.744C384.182 479.769 378.666 478.781 372.596 478.781H344.846V584H372.307ZM366.02 566.512H372.307C377.413 566.512 381.388 565.596 384.23 563.766C387.073 561.935 389.072 559.044 390.229 555.094C391.433 551.143 392.035 545.964 392.035 539.557V523.152C392.035 518.286 391.722 514.167 391.096 510.795C390.469 507.374 389.41 504.628 387.916 502.557C386.423 500.437 384.423 498.871 381.918 497.859C379.413 496.848 376.305 496.342 372.596 496.342H366.02V566.512Z" fill="#02255B"/>
</svg>
