<svg width="33" height="33" viewBox="0 0 33 33" fill="none" xmlns="http://www.w3.org/2000/svg">
<path d="M30.5559 0H2.43581C1.09312 0 0 1.06531 0 2.37711V30.6177C0 31.9326 1.09312 33 2.43581 33H30.558C31.9038 33 33 31.9326 33 30.6177V2.37711C33 1.06531 31.9038 0 30.5559 0Z" fill="#0177B5"/>
<path d="M4.89328 12.3713H9.79688V28.1189H4.89328V12.3713ZM7.34147 4.53352C8.90588 4.53352 10.1774 5.80509 10.1774 7.36954C10.1774 8.934 8.90588 10.2087 7.3425 10.2087C6.58995 10.207 5.86867 9.90742 5.33644 9.37536C4.80421 8.84331 4.50434 8.12212 4.50244 7.36954C4.50244 6.99685 4.57589 6.62781 4.71861 6.28353C4.86132 5.93924 5.07049 5.62646 5.33416 5.36307C5.59783 5.09969 5.91082 4.89085 6.25525 4.74851C6.59968 4.60617 6.96879 4.53311 7.34147 4.53352ZM12.8587 12.3713H17.5529V14.5235H17.6179C18.2717 13.286 19.8681 11.9804 22.2585 11.9804C27.2147 11.9804 28.1294 15.2424 28.1294 19.482V28.12H23.2382V20.4596C23.2382 18.6342 23.2052 16.2829 20.6951 16.2829C18.1479 16.2829 17.7561 18.2733 17.7561 20.3255V28.1158H12.8659V12.3682L12.8587 12.3713Z" fill="white"/>
</svg>
